<svg id="visual" viewBox="0 0 1920 1080" width="1920" height="1080" xmlns="http://www.w3.org/2000/svg" xmlns:xlink="http://www.w3.org/1999/xlink" version="1.1"><rect x="0" y="0" width="1920" height="1080" fill="#001220"></rect><defs><linearGradient id="grad1_0" x1="43.8%" y1="0%" x2="100%" y2="100%"><stop offset="14.444444444444446%" stop-color="#001220" stop-opacity="1"></stop><stop offset="85.55555555555554%" stop-color="#001220" stop-opacity="1"></stop></linearGradient></defs><defs><linearGradient id="grad2_0" x1="0%" y1="0%" x2="56.3%" y2="100%"><stop offset="14.444444444444446%" stop-color="#001220" stop-opacity="1"></stop><stop offset="85.55555555555554%" stop-color="#001220" stop-opacity="1"></stop></linearGradient></defs><g transform="translate(1920, 0)"><path d="M0 486C-50.9 481.8 -101.8 477.7 -150.2 462.2C-198.6 446.8 -244.6 420.1 -278.6 383.5C-312.7 346.9 -334.8 300.4 -355.2 258C-375.5 215.7 -394.1 177.4 -415.6 135C-437.1 92.7 -461.6 46.4 -486 0L0 0Z" fill="#6600FF"></path></g><g transform="translate(0, 1080)"><path d="M0 -486C50 -465.7 100 -445.5 135 -415.6C170.1 -385.8 190.1 -346.3 239.2 -329.3C288.4 -312.2 366.7 -317.7 393.2 -285.7C419.7 -253.7 394.5 -184.3 401.3 -130.4C408.2 -76.6 447.1 -38.3 486 0L0 0Z" fill="#6600FF"></path></g></svg>